<?xml version="1.0" encoding="utf-8"?>
<!-- Generator: Adobe Illustrator 16.0.0, SVG Export Plug-In . SVG Version: 6.00 Build 0)  -->
<!DOCTYPE svg PUBLIC "-//W3C//DTD SVG 1.1//EN" "http://www.w3.org/Graphics/SVG/1.1/DTD/svg11.dtd">
<svg version="1.1" id="Layer_1" xmlns="http://www.w3.org/2000/svg" xmlns:xlink="http://www.w3.org/1999/xlink" x="0px" y="0px"
	 width="197.96px" height="229.146px" viewBox="0 0 197.96 229.146" enable-background="new 0 0 197.96 229.146"
	 xml:space="preserve">
<g>
	<g>
		<path fill-rule="evenodd" clip-rule="evenodd" fill="#D12E18" d="M197.96,0.32c0,0-0.04,197.136-0.04,201.902
			c0,16.582-21.587,16.117-21.587,16.117s-41.491,0-57.214,0c-11.77,0-18.946,10.807-18.946,10.807s-6.355-10.807-20.247-10.807
			c-20.208,0-53.61,0-53.61,0s-25.225,1.002-25.225-14.134c0-8.581,0-203.911,0-203.911L197.96,0.32z"/>
	</g>
	<g>
		<g>
			<path fill-rule="evenodd" clip-rule="evenodd" fill="#FFFFFF" d="M106.382,112.109l42.869-44.853c0,0,6.41-5.64,11.024-5.299
				c4.614,0.341,6.693,1.767,6.693,1.767s0.018,4.499-4.528,8.636c-0.945-1.841-1.181-2.159-1.181-2.159
				s-8.831,11.636-11.615,13.542c5.627-1.666,12.357-3.756,18.309-8.047c-2.23-0.878-2.56-0.981-2.56-0.981s3.812-3.824,5.119-5.692
				c0.758,2.406,0.914,8.156-3.544,12.608c-0.704-0.936-1.575-2.207-1.575-2.207s-6.894,10.059-11.614,14.523
				c5.062-1.14,11.878-3.673,19.293-9.224c-3.033-0.476-3.347-0.588-3.347-0.588s6.89-6.659,6.89-16.093
				c0-5.28-5.512-9.224-5.512-9.224s-2.622-4.1-8.663-4.122c-4.854,0-6.299,1.57-6.299,1.57s2.452-8.656,0.591-11.775
				c-2.553-4.277-6.301-4.514-6.301-4.514s-3.197-4.318-10.827-4.318c-7.631,0-13.781,6.869-13.781,6.869l-0.984-1.374
				c0,0-3.271,3.13-6.496,17.074c3.666-3.868,7.527-8.128,12.796-11.579c-2.325-1.042-2.362-0.981-2.362-0.981
				s4.037-5.098,9.663-5.098c1.111,0,3.351,0.571,3.351,0.571s-2.647,1.521-5.533,5.704c-1.312-1.884-1.378-1.962-1.378-1.962
				s-4.708,5.763-6.891,17.859c3.417-3.156,9.99-8.767,14.372-11.579c-3.38-1.175-3.544-1.178-3.544-1.178s3.621-4.817,7.284-4.71
				c1.295,0.038,3.072,0.775,3.488,2.68c0.416,1.906,0.782,7.453-2.7,11.451c-2.743,3.147-29.552,30.544-41.113,42.001"/>
		</g>
		<g>
			<path fill="#D12E18" d="M106.743,112.455l-0.723-0.691l42.869-44.853c0.299-0.266,6.687-5.787,11.422-5.452
				c4.695,0.347,6.85,1.792,6.939,1.853l0.216,0.148l0.001,0.262c0.001,0.193-0.035,4.77-4.692,9.007l-0.483,0.44l-0.298-0.581
				c-0.36-0.701-0.614-1.175-0.79-1.494c-1.526,1.99-6.469,8.363-9.567,11.525c5.313-1.632,10.469-3.519,15.265-6.798
				c-1.379-0.538-1.649-0.626-1.662-0.63l-0.777-0.251l0.574-0.579c0.038-0.038,3.796-3.815,5.063-5.625l0.582-0.831l0.305,0.967
				c0.783,2.486,1.024,8.426-3.667,13.112l-0.407,0.406l-0.346-0.459c-0.401-0.533-0.855-1.173-1.175-1.63
				c-1.409,2.02-6.089,8.608-9.998,12.731c5.609-1.509,11.119-4.195,16.416-8.005c-1.821-0.298-2.185-0.397-2.256-0.422
				l-0.754-0.272l0.576-0.558c0.067-0.065,6.737-6.631,6.737-15.734c0-4.965-5.25-8.78-5.303-8.817l-0.129-0.136
				c-0.103-0.158-2.567-3.872-8.245-3.892c-4.505,0-5.92,1.399-5.934,1.414l-1.377,1.414l0.533-1.894
				c0.024-0.084,2.372-8.484,0.643-11.383c-2.39-4.004-5.868-4.269-5.903-4.271l-0.23-0.015l-0.139-0.186
				c-0.031-0.041-3.165-4.116-10.426-4.116c-7.323,0-13.349,6.635-13.409,6.702l-0.416,0.464l-0.967-1.349
				c-0.878,1.208-3.188,5.052-5.547,14.547c3.184-3.368,6.507-6.813,10.842-9.786c-1.162-0.508-1.391-0.574-1.417-0.581l0.11-0.434
				l-0.453-0.314c0.055-0.09,0.101-0.162,0.163-0.206c0.75-0.887,4.62-5.133,9.928-5.133c1.161,0,3.38,0.563,3.474,0.587
				l1.188,0.303l-1.061,0.615c-0.026,0.015-2.596,1.531-5.372,5.554l-0.41,0.594l-0.412-0.592c-0.464-0.666-0.771-1.104-0.974-1.393
				c-1.106,1.597-4.279,6.751-6.108,15.621c3.326-2.992,8.548-7.394,12.475-10.054c-2.141-0.736-2.479-0.82-2.514-0.828
				l-0.983-0.015l0.674-0.777c0.153-0.203,3.737-4.912,7.563-4.912c0.045,0,0.09,0.001,0.136,0.002
				c1.649,0.049,3.513,1.018,3.962,3.073c0.062,0.283,1.462,6.979-2.812,11.886c-2.791,3.202-29.704,30.697-41.138,42.027
				l-0.704-0.71c11.425-11.322,38.306-38.782,41.088-41.975c3.158-3.625,3.074-8.791,2.589-11.016
				c-0.382-1.746-2.075-2.259-3.015-2.286c-0.036-0.001-0.072-0.002-0.108-0.002c-2.604,0-5.256,2.74-6.3,3.95
				c0.527,0.17,1.397,0.464,2.846,0.968l0.971,0.337l-0.865,0.556c-4.387,2.815-10.957,8.435-14.303,11.525l-1.096,1.013
				l0.265-1.469c2.181-12.084,6.8-17.848,6.996-18.087l0.384-0.47l0.388,0.466c0.051,0.062,0.51,0.716,0.997,1.413
				c1.739-2.395,3.347-3.842,4.322-4.599c-0.702-0.148-1.586-0.307-2.142-0.307c-4.243,0-7.599,3.102-8.797,4.374
				c0.401,0.167,0.947,0.411,1.701,0.749l0.834,0.374l-0.765,0.501c-4.827,3.161-8.414,6.959-11.882,10.633l-2.089,2.206
				l0.414-1.791c3.222-13.93,6.5-17.19,6.638-17.323l0.417-0.398l0.968,1.351c1.544-1.563,7.027-6.586,13.727-6.586
				c7,0,10.375,3.499,11.088,4.344c0.893,0.125,4.147,0.84,6.469,4.731c1.531,2.565,0.388,8.383-0.223,10.938
				c0.998-0.466,2.724-0.976,5.501-0.976c5.839,0.021,8.603,3.654,9.029,4.27c0.703,0.522,5.646,4.38,5.646,9.576
				c0,7.925-4.665,13.849-6.406,15.784c0.488,0.088,1.253,0.218,2.441,0.404l1.171,0.184l-0.949,0.71
				c-6.244,4.673-12.798,7.807-19.483,9.312l-1.776,0.4l1.322-1.251c4.628-4.376,11.477-14.343,11.545-14.443l0.413-0.602
				l0.413,0.602c0.001,0.002,0.606,0.884,1.212,1.715c3.227-3.521,3.738-7.947,3.254-10.697c-1.199,1.475-3.061,3.414-3.979,4.354
				c0.389,0.148,0.972,0.374,1.843,0.717l0.852,0.335l-0.743,0.536c-5.772,4.161-12.025,6.215-18.459,8.121l-3.044,0.901l2.62-1.793
				c2.686-1.838,11.411-13.316,11.499-13.432l0.404-0.532l0.396,0.537c0.038,0.052,0.246,0.354,0.917,1.637
				c3.259-3.22,3.788-6.573,3.874-7.54c-0.649-0.353-2.66-1.281-6.213-1.544c-4.351-0.318-10.595,5.122-10.658,5.176
				L106.743,112.455z"/>
		</g>
	</g>
	<g>
		<path fill-rule="evenodd" clip-rule="evenodd" fill="#FFFFFF" d="M94.498,101.175L44.122,51.751c0,0-1.579-3.174,1.379-5.103
			c2.957-1.928,5.485-3.298,10.434-2.355s7.284,2.944,7.284,2.944l-2.362,2.552c0,0,8.022,2.724,15.749,8.438
			c-2.011-5.357-5.843-12.734-9.843-17.271c-0.775,3.107-1.182,3.533-1.182,3.533s-4.981-4.574-12.009-5.103
			c-3.771,0-8.975,0.785-14.568,0.785s-12.402-1.374-12.402-1.374s1.377,5.794,1.377,10.206c0,4.411-1.347,13.795-0.59,17.466
			c1.052,6.013,4.331,10.01,4.331,10.01s-1.438,0.889-2.756,1.177c0.568,0.658,6.521,6.165,16.733,10.402
			c-2.003-2.966-6.729-10.161-9.253-16.29c-1.686,2.605-2.165,2.747-2.165,2.747s-2.238-3.701-2.362-8.047
			c-0.125-4.345,1.654-7.894,2.952-9.42c1.298-1.527,2.289-2.123,3.544-1.962c1.214,0.155,1.395,0.997,4.134,3.729
			c2.565,2.556,45.657,47.863,51.188,53.679"/>
	</g>
	<g>
		<path fill-rule="evenodd" clip-rule="evenodd" fill="#FFFFFF" d="M56.069,164.02c1.926,2.822,3.052,6.233,3.052,9.907
			c0,9.719-7.878,17.597-17.596,17.597c-9.719,0-17.597-7.878-17.597-17.597c0-9.718,7.878-17.596,17.597-17.596
			c2.785,0,5.42,0.647,7.76,1.799"/>
	</g>
	<g>
		<g>
			<path fill-rule="evenodd" clip-rule="evenodd" fill="#FFFFFF" d="M144.484,164.841c-1.603,2.652-2.524,5.761-2.524,9.085
				c0,9.719,7.878,17.597,17.597,17.597c9.718,0,17.597-7.878,17.597-17.597c0-9.718-7.879-17.596-17.597-17.596
				c-2.786,0-5.975,0.882-8.315,2.034"/>
		</g>
		<g>
			<path fill="#D12E18" d="M159.557,192.023c-9.979,0-18.097-8.118-18.097-18.097c0-3.302,0.898-6.533,2.597-9.344l0.855,0.518
				c-1.604,2.655-2.452,5.708-2.452,8.827c0,9.427,7.669,17.097,17.097,17.097s17.097-7.669,17.097-17.097
				c0-9.427-7.669-17.096-17.097-17.096c-2.508,0-5.61,0.76-8.095,1.982l-0.441-0.897c2.614-1.286,5.884-2.085,8.536-2.085
				c9.979,0,18.097,8.118,18.097,18.096C177.653,183.905,169.535,192.023,159.557,192.023z"/>
		</g>
	</g>
	<g>
		<path fill-rule="evenodd" clip-rule="evenodd" fill="#D12E18" d="M156.256,163.6c1.161-0.424,1.993-0.511,3.301-0.511
			c5.986,0,10.839,4.853,10.839,10.838c0,5.987-4.853,10.839-10.839,10.839s-10.839-4.853-10.839-10.839
			c0-1.483,0.298-2.897,0.837-4.185"/>
	</g>
	<g>
		<path fill-rule="evenodd" clip-rule="evenodd" fill="#D12E18" d="M51.176,168.989c0.76,1.481,1.188,3.16,1.188,4.938
			c0,5.987-4.853,10.839-10.838,10.839c-5.986,0-10.84-4.853-10.84-10.839c0-5.986,4.854-10.838,10.84-10.838
			c1.037,0,2.041,0.146,2.991,0.418"/>
	</g>
	<g>
		<g>
			<path fill="#FFFFFF" d="M141.79,41.142c0,0,3.829-2.055,8.642-1.165"/>
		</g>
		<g>
			<path fill="#D12E18" d="M142.026,41.582l-0.473-0.881c0.163-0.087,4.043-2.126,8.969-1.216l-0.182,0.983
				C145.753,39.619,142.063,41.562,142.026,41.582z"/>
		</g>
	</g>
	<g>
		<g>
			<path fill="#FFFFFF" d="M166.969,63.724c0,0,2.337,0.856,3.544,5.299"/>
		</g>
		<g>
			<path fill="#D12E18" d="M170.03,69.153c-1.112-4.092-3.217-4.954-3.238-4.962l0.349-0.937c0.105,0.039,2.594,0.999,3.854,5.637
				L170.03,69.153z"/>
		</g>
	</g>
	<g>
		<g>
			<path fill-rule="evenodd" clip-rule="evenodd" fill="#FFFFFF" d="M125.823,42.527c0,0-2.813,3.176-7.263,15.396
				c6.251-8.785,10.216-12.255,10.216-12.255"/>
		</g>
		<g>
			<path fill="#D12E18" d="M116.828,61.22l1.263-3.468c4.431-12.169,7.241-15.424,7.358-15.556l0.75,0.662
				c-0.025,0.028-2.276,2.665-5.87,11.802c4.94-6.558,7.974-9.242,8.118-9.368l0.659,0.752c-0.04,0.035-4.003,3.548-10.138,12.169
				L116.828,61.22z"/>
		</g>
	</g>
	<g>
		<g>
			<path fill-rule="evenodd" clip-rule="evenodd" fill="#FFFFFF" d="M136.257,46.845c0,0-3.871,4.349-8.269,15.897
				c5.777-7.935,10.828-12.757,10.828-12.757"/>
		</g>
		<g>
			<path fill="#D12E18" d="M126.188,66.063l1.333-3.499c4.38-11.502,8.202-15.871,8.362-16.052l0.748,0.665
				c-0.034,0.039-3.073,3.525-6.773,12.252c4.746-6.093,8.57-9.764,8.614-9.806l0.69,0.724c-0.05,0.048-5.088,4.887-10.769,12.689
				L126.188,66.063z"/>
		</g>
	</g>
	<g>
		<g>
			<path fill-rule="evenodd" clip-rule="evenodd" fill="#FFFFFF" d="M171.104,58.817c0,0-7.099-5.062-14.962-2.552"/>
		</g>
		<g>
			<path fill="#D12E18" d="M170.813,59.225c-0.069-0.048-6.996-4.885-14.52-2.482l-0.304-0.953
				c8.012-2.558,15.105,2.409,15.404,2.621L170.813,59.225z"/>
		</g>
	</g>
	<g>
		<g>
			<path fill-rule="evenodd" clip-rule="evenodd" fill="#FFFFFF" d="M162.44,72.359c0,0-5.589,6.53-12.796,11.383
				c12.277-5.66,15.749-9.028,15.749-9.028"/>
		</g>
		<g>
			<path fill="#D12E18" d="M149.854,84.196l-0.489-0.869c7.064-4.756,12.64-11.229,12.695-11.293l0.76,0.65
				c-0.045,0.052-3.63,4.216-8.706,8.35c8.286-4.183,10.902-6.651,10.931-6.679l0.696,0.718
				C165.598,75.213,162.068,78.565,149.854,84.196z"/>
		</g>
	</g>
	<g>
		<g>
			<path fill-rule="evenodd" clip-rule="evenodd" fill="#FFFFFF" d="M169.726,84.135c0,0-3.817,4.503-15.946,9.812
				c9.494-7.474,13.189-12.317,13.189-12.317"/>
		</g>
		<g>
			<path fill="#D12E18" d="M150.396,95.974l3.074-2.42c9.336-7.35,13.064-12.179,13.101-12.227l0.795,0.606
				c-0.134,0.176-3.014,3.906-10.147,9.869c9.016-4.428,12.092-7.953,12.126-7.992l0.762,0.647
				c-0.159,0.188-4.031,4.652-16.127,9.947L150.396,95.974z"/>
		</g>
	</g>
	<g>
		<g>
			<path fill-rule="evenodd" clip-rule="evenodd" fill="#FFFFFF" d="M92.773,114.618L44.679,162.74c0,0-0.985,2.994,1.295,5.274
				c2.28,2.281,5.237,0.958,5.237,0.958l45.35-46.213"/>
		</g>
	</g>
	<g>
		<g>
			<path fill-rule="evenodd" clip-rule="evenodd" fill="#FFFFFF" d="M103.683,122.987l30.016,30.623c0,0,1.007,1.701,0.787,3.14
				s-4.829,12.91-6.693,17.467c-1.864,4.558-2.56,8.047-2.56,8.047l4.528,1.57c0,0,2.344-9.157,12.993-20.804
				c0.778,0.958,6.609,6.617,6.609,6.617s2.747,1.594,5.351-0.901c2.702-2.59,1.761-5.214,1.089-5.894l-6.196-6.095
				c0,0,5.285-6.708,19.922-12.567c-1.693-3.663-1.772-3.729-1.772-3.729s-8.562,1.302-19.687,5.888
				c-1.259,0.48-6.771,2.082-8.269,0.588c-1.275-1.272-25.246-25.025-32.312-32.026"/>
		</g>
	</g>
	<g>
		<g>
			<path fill-rule="evenodd" clip-rule="evenodd" fill="#EDB400" d="M107.158,34.685c0.071-0.339-0.149-1.051-0.562-1.501
				c-0.413-0.451-0.938-0.563-1.451-0.601c-0.513-0.038-2.003-1.051-2.247-1.727c-0.243-0.676,0.132-0.638,0.958-0.413
				c0.825,0.225,1.538,0.488,1.839,0.938s1.539,0.676,1.539,0.676c0.376,0.301,1.202-0.112,1.765-0.038
				c0.563,0.075,0.112-1.126,0.648-0.713s1.195,0.066,1.195,0.066c0.862-0.128,0.341-1.391,0.341-1.391s1.308-0.048,1.771-0.393
				c0.465-0.344,0.153-1.094,0.197-1.57c0.043-0.476-0.708-0.459-0.591-0.785c0.116-0.325-0.394-0.785-0.394-0.785
				s0.895-0.67,0.787-0.981c-0.108-0.311-0.591-0.589-0.591-0.589s0.653-0.835,0.591-1.177c-0.062-0.343-0.591-0.393-0.591-0.393
				s0.378-0.612,0.394-1.178c0.016-0.565-0.696-0.223-0.787-0.392c0.214-0.418,0.154-1.263-0.531-0.822
				c0.412-0.845,0-2.131-0.256-2.122c-0.257,0.008-1.124,1.7-3.544,3.925c-0.714,0.657-2.111,2.002-2.166,2.159
				c-0.054,0.157-0.095,0.702,0.197,0.981c0.293,0.28,0.996,0.854,0.394,1.374s-2.096,0.522-2.362,0
				c-0.266-0.521,0.644-0.65,0.591-0.981c-0.054-0.332-0.872-0.712-0.984-1.178c-0.113-0.466-0.603-1.092-0.394-1.57
				c0.208-0.478,0.246-1.148,0.984-1.177c0.737-0.029,1.088,0.845,1.378,0.393c0.289-0.453,0.394-0.786,0.394-0.786
				s0.447,0.373,0.788,0.196c0.34-0.176,0.418-0.724,0.196-0.981c-0.222-0.257-0.475-0.88-0.196-1.177
				c0.277-0.297,0.851-0.857,1.378-0.589c0.526,0.269,0.28,1.214,0.787,1.178c0.301-0.022,0.788-0.508,0.787-0.981
				c0-0.474-0.413-0.544-0.391-0.787c0.021-0.243,0.505-0.045,0.767-0.345c0.264-0.299-0.352-0.352-0.352-0.352
				s-0.14-0.458-0.492-0.57c-0.401-0.127-0.701,0.367-0.845,0.147c-0.943-1.436-1.887-0.175-1.511,0.346
				c0.221,0.305-0.088,1.021-0.602,1.112c-0.514,0.091-0.087-0.514-0.112-0.88c-0.07-0.993-1.056-1.189-1.188-1.419
				c-0.131-0.229-0.026-0.839-0.523-0.798s-0.453,0.835-0.461,0.994s-0.298,0.178-0.591,0.196c-0.582,0.037-0.175,0.942-0.645,0.98
				c-0.469,0.038-0.807-0.826-0.562-1.445c0.243-0.62,0.025-1.104,0.025-1.104s-0.195-0.511-1.271-0.68
				c0.182-0.839-0.514-0.75-0.514-0.75s-0.659-0.089-0.478,0.75c-1.075,0.168-1.392,0.732-1.392,0.732s-0.225,0.458,0.02,1.078
				c0.244,0.619-0.098,1.47-0.566,1.433c-0.47-0.038-0.064-0.949-0.646-0.987c-0.292-0.019-0.583-0.041-0.591-0.2
				c-0.009-0.159,0.035-0.955-0.462-0.996c-0.497-0.042-0.393,0.567-0.523,0.797c-0.132,0.229-1.117,0.426-1.188,1.419
				c-0.026,0.367,0.401,0.971-0.113,0.88c-0.514-0.092-0.822-0.807-0.601-1.112c0.376-0.521-0.567-1.781-1.511-0.346
				c-0.145,0.22-0.443-0.274-0.845-0.147c-0.353,0.111-0.492,0.57-0.492,0.57s-0.615,0.053-0.353,0.352
				c0.262,0.3,0.745,0.103,0.768,0.345c0.021,0.243-0.391,0.313-0.391,0.787c-0.001,0.473,0.485,0.959,0.787,0.981
				c0.507,0.036,0.261-0.909,0.787-1.178s1.101,0.292,1.378,0.589s0.025,0.92-0.196,1.177c-0.223,0.257-0.144,0.805,0.196,0.981
				c0.34,0.177,0.788-0.196,0.788-0.196s0.104,0.333,0.393,0.786c0.29,0.453,0.641-0.422,1.379-0.393
				c0.738,0.029,0.776,0.7,0.984,1.177c0.208,0.478-0.281,1.104-0.394,1.57c-0.113,0.466-0.932,0.846-0.984,1.178
				c-0.053,0.331,0.856,0.459,0.591,0.981c-0.267,0.522-1.761,0.52-2.363,0s0.102-1.094,0.395-1.374
				c0.292-0.279,0.251-0.824,0.196-0.981c-0.054-0.157-1.451-1.502-2.165-2.159c-2.42-2.226-3.288-3.917-3.544-3.925
				c-0.256-0.009-0.669,1.277-0.256,2.122c-0.686-0.441-0.746,0.404-0.531,0.822c-0.091,0.169-0.804-0.173-0.788,0.392
				c0.016,0.566,0.394,1.178,0.394,1.178s-0.528,0.05-0.59,0.393c-0.062,0.342,0.59,1.177,0.59,1.177s-0.482,0.278-0.59,0.589
				c-0.108,0.311,0.787,0.981,0.787,0.981s-0.511,0.459-0.394,0.785c0.116,0.325-0.634,0.309-0.591,0.785
				c0.043,0.477-0.268,1.226,0.197,1.57c0.464,0.345,1.771,0.393,1.771,0.393s-0.521,1.263,0.34,1.391c0,0,0.659,0.347,1.195-0.066
				s0.086,0.789,0.649,0.713c0.562-0.075,1.389,0.338,1.764,0.038c0,0,1.239-0.225,1.54-0.676c0.3-0.451,1.013-0.713,1.839-0.938
				c0.826-0.226,1.201-0.263,0.957,0.413c-0.243,0.676-1.734,1.689-2.247,1.727c-0.512,0.038-1.037,0.15-1.45,0.601
				c-0.413,0.45-0.639,1.164-0.563,1.501s-0.338-0.413-1.276-0.451l-3.811-2.947l-0.563-0.169l0.113,0.525l3.286,3.047
				c0,0-0.458,0.53,0.59,0.785c-0.349,0.689-0.411,1.52-0.197,1.767c0.215,0.247,1.182,0.785,1.182,0.785s0.294,0.857,0.591,0.981
				c0.297,0.124,0.485-0.019,0.591-0.393c0.105-0.374-0.12-1.571-0.12-1.571l1.845-0.366c0,0,1.433-0.322,1.939-1.111
				s0.7-2.031,1.614-1.692c1.876,0.696-0.992,3.645-1.935,3.759c-0.943,0.114-2.018,1.346-1.967,2.159
				c0.052,0.813,1.415,0.654,1.576,1.177c0.799,2.606-1.645,4.829-0.928,6.084C96.281,48.31,97,48.625,97,48.625v0.981
				c0,0-0.256,0.894-0.256,2.355c0,1.461,2.192,2.301,2.192,2.301s-1.068,0.566-0.66,2.213c0.407,1.646,0.812,5.707,0.485,10.598
				c-0.327,4.89-1.485,18.568-1.53,23.56C97.187,95.625,97.979,98,97.979,98h-3.646c0,0,0.941-0.251,0.78,1.466
				c-0.163,1.717-1.372,4.015-1.379,5.392c-0.006,1.377,1.513,2.479,3.309,2.65c-0.925,0.214-1.817,0.627-1.795,1.439
				c0.023,0.812,1.243,0.973,1.243,0.973s-3.938,2.152-3.938,6.446c0,4.293,4.527,5.479,4.527,5.479s-0.577,0.593-0.59,1.367
				c-0.014,0.774,0.869,1.306,1.181,1.763c0.312,0.456,0.75,1.862,0.591,5.099c-0.159,3.237-2.132,16.369-2.56,22.361
				S95.487,161,96.687,164c-1.829,0-2.784,0-2.784,0s1.937,0.494,1.603,1.583c-0.299,0.978-0.922,3.984-0.393,5.404
				c0.528,1.419,1.955,3.208,3.408,3.345c-1.576,0.347-1.959,0.977-1.959,1.675s0.689,1.445,1.503,1.399
				c-0.7,0.839-1.181,4.292-1.181,7.244c0,2.951,1.066,5.523,1.066,5.523s-1.315,0.136-1.46,1.136
				c-0.145,0.999,0.787,1.372,0.787,1.372s-1.772,0.704-1.772,3.322c0,2.619,1.433,4.085,2.56,4.134
				c-0.91,0.152-1.142,1.496-0.197,1.962c-0.451,0.325-1.188,1.232-1.188,2.438c0,1.187,0.559,3.188,3.383,3.188
				c2.826,0,3.445-2.001,3.445-3.188c0-1.206-0.69-2.068-1.142-2.394c0.945-0.466,0.691-1.832-0.218-1.985
				c1.127-0.048,2.549-1.527,2.549-4.146s-1.777-3.328-1.777-3.328s0.93-0.378,0.785-1.377c-0.145-0.999-1.462-1.142-1.462-1.142
				s1.066-2.582,1.066-5.533c0-2.951-0.481-6.422-1.182-7.262c0.813,0.046,1.503-0.737,1.503-1.436c0-0.699-0.4-1.416-1.977-1.762
				c1.452-0.138,2.897-2.056,3.426-3.475c0.529-1.42-0.094-4.138-0.394-5.116c-0.333-1.088,1.603-1.583,1.603-1.583
				s-0.954,0-2.784,0c1.2-3,1.413-5.574,0.984-11.567c-0.427-5.992-2.399-18.835-2.56-22.073c-0.159-3.236,0.279-4.79,0.591-5.246
				c0.312-0.457,1.194-1.065,1.182-1.839s-0.591-1.41-0.591-1.41s4.528-1.22,4.528-5.513s-3.938-6.485-3.938-6.485
				s1.22-0.228,1.242-1.04c0.023-0.812-0.869-1.351-1.795-1.565c1.796-0.17,3.31-1.48,3.31-2.898s-1.217-3.181-1.379-4.898
				c-0.161-1.717,0.779-1.466,0.779-1.466h-3.646c0,0,0.746-2.375,0.701-7.366c-0.046-4.992-1.248-18.174-1.575-23.065
				s-0.015-9.2,0.394-10.846c0.408-1.646-0.843-2.337-0.843-2.337s1.461-0.901,1.461-2.363c0-1.461-1.351-2.417-1.351-2.417v-0.981
				c0,0,1.813-0.315,2.532-1.57c0.718-1.255-0.813-3.478-0.015-6.084c0.162-0.523,1.615-0.364,1.667-1.177s-0.977-2.044-1.92-2.159
				s-3.787-3.063-1.912-3.759c0.914-0.339,1.119,0.903,1.626,1.692s1.946,1.111,1.946,1.111l1.847,0.366
				c0,0-0.225,1.197-0.119,1.571c0.105,0.375,0.294,0.517,0.591,0.393c0.298-0.125,0.592-0.981,0.592-0.981s0.967-0.539,1.181-0.785
				c0,0,1.924-0.38,1.924-1.694c0-1.314-1.54-1.352-1.54-1.352l0.006-0.643l0.56-0.506l-0.577-0.451l-0.599,0.479l0.616,0.479
				l-0.006,0.643c0,0-1.37,0.385-1.37,1.159s-0.437,0.789-0.437,0.789S106.92,35.815,107.158,34.685z"/>
		</g>
		<g>
			<path fill="#D12E18" d="M100.062,208.225c-2.863,0-3.883-1.905-3.883-3.688c0-1.058,0.483-1.897,0.932-2.41
				c-0.273-0.332-0.399-0.766-0.333-1.219c0.033-0.223,0.108-0.427,0.218-0.604c-1.08-0.645-1.992-2.186-1.992-4.301
				c0-1.84,0.793-2.851,1.402-3.355c-0.286-0.325-0.501-0.794-0.412-1.412c0.114-0.787,0.723-1.217,1.291-1.421
				c-0.319-0.931-0.902-2.936-0.902-5.173c0-2.454,0.322-5.423,0.925-6.905c-0.765-0.316-1.248-1.07-1.248-1.761
				c0-0.755,0.344-1.326,1.045-1.726c-1.146-0.752-2.071-2.159-2.463-3.214c-0.589-1.58,0.075-4.84,0.383-5.849
				c0.15-0.491-0.903-1.066-1.304-1.22L91.207,163h4.754c-1.008-2.796-1.158-5.246-0.757-10.852
				c0.23-3.229,0.909-8.458,1.507-13.071c0.503-3.882,0.979-7.549,1.052-9.029c0.181-3.679-0.433-4.689-0.504-4.792
				c-0.08-0.117-0.206-0.236-0.338-0.368c-0.398-0.394-0.943-0.934-0.93-1.687c0.007-0.436,0.148-0.818,0.305-1.109
				c-1.336-0.549-4.243-2.154-4.243-5.734c0-3.302,2.131-5.398,3.358-6.331c-0.36-0.235-0.649-0.589-0.664-1.097
				c-0.01-0.358,0.101-0.905,0.729-1.364c-1.336-0.562-2.247-1.646-2.242-2.835c0.004-0.786,0.333-1.795,0.682-2.865
				c0.308-0.942,0.625-1.917,0.7-2.697c0.083-0.884-0.165-1.152-0.308-1.169L94.332,97h0l0,0h2.988
				c-0.236-0.99-0.604-3.111-0.573-6.621c0.033-3.61,0.659-11.693,1.116-17.595c0.181-2.335,0.339-4.375,0.431-5.744
				c0.335-5.004-0.08-8.988-0.44-10.445c-0.25-1.01-0.001-1.746,0.346-2.217c-0.704-0.426-1.705-1.239-1.705-2.417
				c0-1.27,0.355-2.156,0.506-2.474v-0.544c-0.403-0.218-1.082-0.698-1.622-1.641c-0.437-0.765-0.114-1.68,0.227-2.649
				c0.374-1.061,0.797-2.263,0.407-3.537c-0.027,0.014-0.228-0.058-0.364-0.104c-0.442-0.146-1.182-0.392-1.233-1.188
				c-0.069-1.111,1.212-2.542,2.406-2.687c0.418-0.05,2.003-1.448,2.113-2.379c0.022-0.19-0.018-0.312-0.292-0.415
				c-0.058-0.021-0.095-0.026-0.116-0.026c-0.153,0-0.362,0.449-0.515,0.776c-0.119,0.255-0.243,0.516-0.389,0.743
				c-0.6,0.934-2.083,1.291-2.25,1.328l-1.382,0.274c0.064,0.445,0.115,1.005,0.029,1.311c-0.196,0.697-0.636,0.801-0.88,0.801
				c-0.125,0-0.254-0.027-0.384-0.082c-0.367-0.154-0.633-0.649-0.806-1.099c-0.361-0.207-0.942-0.561-1.152-0.801
				c-0.327-0.378-0.299-1.131-0.081-1.809c-0.256-0.141-0.422-0.327-0.495-0.557c-0.042-0.131-0.047-0.26-0.029-0.379l-3.152-2.923
				l-0.325-1.507l1.536,0.496l0.124,0.095c-0.033-0.188-0.026-0.382-0.001-0.557c-0.473-0.059-1.086-0.182-1.435-0.44
				c-0.554-0.411-0.476-1.087-0.423-1.534c0.017-0.146,0.035-0.298,0.026-0.393c-0.049-0.542,0.36-0.805,0.57-0.926
				c-0.002-0.229,0.09-0.445,0.205-0.625c-0.489-0.453-0.674-0.858-0.552-1.209c0.072-0.208,0.219-0.389,0.371-0.531
				c-0.252-0.389-0.452-0.823-0.39-1.16c0.047-0.261,0.198-0.45,0.39-0.58c-0.101-0.254-0.193-0.57-0.202-0.888
				c-0.008-0.313,0.114-0.507,0.219-0.615c0.143-0.146,0.318-0.205,0.459-0.229c-0.006-0.226,0.037-0.452,0.149-0.636
				c0.083-0.136,0.197-0.239,0.332-0.302c-0.067-0.662,0.104-1.338,0.324-1.692c0.194-0.311,0.428-0.376,0.589-0.376
				c0.351,0.011,0.523,0.237,0.984,0.841c0.087,0.114,0.184,0.241,0.292,0.38c0.01-0.193,0.062-0.348,0.128-0.472
				c-0.136-0.053-0.269-0.135-0.383-0.267c-0.262-0.298-0.188-0.583-0.145-0.692c0.098-0.244,0.316-0.367,0.525-0.429
				c0.122-0.219,0.339-0.494,0.69-0.605c0.279-0.089,0.583-0.018,0.778,0.077c0.419-0.503,0.835-0.618,1.127-0.618
				c0.434,0,0.835,0.258,1.047,0.672c0.026,0.051,0.048,0.103,0.067,0.154c0.256-0.375,0.619-0.587,0.854-0.726
				c0.038-0.022,0.073-0.042,0.104-0.061c0.005-0.026,0.009-0.054,0.014-0.082c0.041-0.23,0.167-0.933,0.893-0.933
				c0.461,0.035,0.917,0.272,0.996,1.188c0.051,0.004,0.101,0.008,0.136,0.01c0.473,0.031,0.671,0.33,0.76,0.603
				c0.01-0.118,0.002-0.248-0.044-0.366c-0.316-0.802-0.036-1.415-0.003-1.482c0.05-0.091,0.382-0.637,1.315-0.907
				c0.02-0.203,0.088-0.376,0.204-0.521c0.172-0.214,0.444-0.337,0.746-0.337l0.051,0.001c0.017,0,0.036-0.001,0.058-0.001
				c0.316,0,0.599,0.126,0.777,0.347c0.114,0.142,0.183,0.312,0.204,0.509c0.925,0.265,1.171,0.784,1.215,0.898
				c0.02,0.042,0.284,0.673-0.027,1.465c-0.046,0.117-0.055,0.245-0.043,0.363c0.092-0.267,0.292-0.55,0.753-0.58
				c0.04-0.002,0.089,0.227,0.138,0.223c0.087-0.919,0.53-0.948,0.905-0.948c0.002,0,0.004,0,0.006,0
				c0.809,0,0.933,0.468,0.974,0.698c0.005,0.028,0.009-0.061,0.014-0.034c0.03,0.019,0.066-0.02,0.104,0.002
				c0.236,0.138,0.598,0.322,0.854,0.697c0.019-0.052,0.041-0.118,0.067-0.168c0.212-0.414,0.613-0.679,1.047-0.679
				c0.292,0,0.709,0.111,1.128,0.615c0.226-0.107,0.507-0.166,0.777-0.08c0.352,0.111,0.568,0.385,0.69,0.604
				c0.208,0.062,0.427,0.186,0.525,0.429c0.043,0.109,0.117,0.396-0.147,0.694c-0.116,0.133-0.251,0.214-0.381,0.266
				c0.069,0.128,0.119,0.281,0.129,0.47c0.107-0.138,0.204-0.264,0.291-0.378c0.462-0.605,0.635-0.831,0.967-0.842
				c0,0,0.001,0,0.001,0c0.18,0,0.413,0.066,0.606,0.376c0.221,0.354,0.392,1.03,0.325,1.692c0.134,0.062,0.249,0.165,0.332,0.301
				c0.112,0.184,0.156,0.411,0.149,0.637c0.141,0.023,0.316,0.082,0.458,0.229c0.104,0.107,0.227,0.301,0.219,0.615
				c-0.009,0.318-0.102,0.634-0.202,0.888c0.192,0.129,0.344,0.318,0.391,0.58c0.062,0.338-0.138,0.771-0.391,1.16
				c0.152,0.143,0.299,0.323,0.372,0.531c0.122,0.352-0.064,0.757-0.553,1.209c0.115,0.179,0.207,0.395,0.205,0.624
				c0.21,0.122,0.62,0.384,0.571,0.927c-0.009,0.096,0.009,0.248,0.026,0.395c0.052,0.447,0.131,1.122-0.424,1.533
				c-0.348,0.258-0.96,0.381-1.434,0.44c0.042,0.295,0.033,0.641-0.131,0.93c-0.104,0.183-0.307,0.411-0.692,0.492
				c-0.202,0.086-0.775,0.229-1.228,0.077c-0.027,0.094-0.062,0.176-0.103,0.248l1.079,0.842l-0.824,0.746
				c0.694,0.165,1.522,0.657,1.522,1.783c0,1.288-1.309,1.941-2.182,2.153c-0.264,0.226-0.716,0.499-1.016,0.671
				c-0.173,0.449-0.439,0.945-0.806,1.099c-0.131,0.055-0.261,0.082-0.385,0.082c-0.244,0-0.684-0.104-0.88-0.801
				c-0.086-0.305-0.035-0.865,0.029-1.31l-1.369-0.272c-0.18-0.04-1.666-0.396-2.266-1.331c-0.146-0.226-0.269-0.486-0.388-0.74
				c-0.154-0.329-0.365-0.78-0.52-0.78c-0.021,0-0.059,0.004-0.117,0.026c-0.275,0.103-0.315,0.226-0.293,0.417
				c0.11,0.931,1.69,2.327,2.107,2.377c1.188,0.144,2.461,1.575,2.39,2.687c-0.051,0.798-0.803,1.043-1.252,1.189
				c-0.141,0.046-0.354,0.115-0.407,0.164c-0.359,1.222-0.095,2.422,0.138,3.481c0.224,1.019,0.417,1.899-0.008,2.643
				c-0.589,1.029-1.641,1.507-2.216,1.7v0.393c0.351,0.366,1.101,1.303,1.101,2.612c0,1.13-0.796,1.95-1.38,2.398
				c0.422,0.492,0.766,1.289,0.497,2.375c-0.417,1.68-0.691,5.976-0.38,10.63c0.098,1.47,0.276,3.679,0.477,6.185
				c0.475,5.915,1.067,13.276,1.099,16.784c0.032,3.513-0.323,5.633-0.549,6.621H106v1c0,0.017-0.436,0.284-0.353,1.169
				c0.073,0.771,0.354,1.644,0.66,2.488c0.353,0.972,0.668,1.89,0.668,2.706c0,1.257-0.959,2.429-2.311,3.019
				c0.519,0.386,0.799,0.893,0.783,1.458c-0.015,0.517-0.321,0.884-0.692,1.131c1.221,0.93,3.384,3.047,3.384,6.374
				c0,3.586-2.919,5.205-4.251,5.756c0.16,0.299,0.306,0.691,0.313,1.135c0.012,0.755-0.537,1.318-0.938,1.729
				c-0.13,0.134-0.253,0.255-0.332,0.369c-0.258,0.377-0.654,1.829-0.504,4.877c0.073,1.475,0.524,4.924,1.047,8.917
				c0.601,4.584,1.281,9.78,1.511,13.019c0.401,5.606,0.252,8.057-0.757,10.853h4.729l-2.49,0.966
				c-0.47,0.183-1.451,0.743-1.305,1.22c0.239,0.778,1.003,4.025,0.384,5.687c-0.402,1.08-1.343,2.523-2.5,3.285
				c0.866,0.505,1.082,1.205,1.082,1.777c0,0.71-0.499,1.486-1.241,1.797c0.6,1.488,0.92,4.45,0.92,6.9
				c0,2.239-0.584,4.248-0.903,5.179c0.569,0.205,1.18,0.636,1.293,1.423c0.089,0.618-0.126,1.089-0.412,1.415
				c0.611,0.505,1.409,1.518,1.409,3.362c0,2.121-0.908,3.666-1.984,4.312c0.118,0.185,0.199,0.398,0.233,0.629
				c0.066,0.452-0.057,0.885-0.326,1.216c0.438,0.504,0.887,1.317,0.887,2.367C104.007,206.238,102.974,208.225,100.062,208.225z
				 M100.042,200.311l-1.894,0.318c-0.24,0.04-0.354,0.246-0.38,0.425c-0.014,0.096-0.033,0.422,0.321,0.597l0.746,0.368
				l-0.675,0.486c-0.272,0.196-0.98,0.944-0.98,2.032c0,0.808,0.281,2.688,2.883,2.688c2.733,0,2.945-2.058,2.945-2.688
				c0-1.04-0.611-1.755-0.934-1.988l-0.674-0.486l0.746-0.368c0.346-0.171,0.326-0.499,0.312-0.596
				c-0.026-0.181-0.145-0.406-0.392-0.448L100.042,200.311z M100.304,174.389l-1.676,0.369c-1.566,0.345-1.566,1.011-1.566,1.272
				c0,0.413,0.431,0.971,0.933,0.971h1.068l-0.614,0.765c-0.503,0.604-1.064,3.572-1.064,6.904c0,2.81,1.018,5.298,1.028,5.323
				l0.255,0.611l-0.665,0.066c-0.007,0.001-0.931,0.112-1.018,0.71c-0.087,0.603,0.456,0.828,0.479,0.837l1.163,0.465l-1.165,0.462
				c-0.055,0.023-1.457,0.637-1.457,2.857c0,2.313,1.208,3.597,2.081,3.634l2.276,0.098l1.764-0.076
				c0.868-0.037,2.07-1.325,2.07-3.646c0-2.221-1.407-2.84-1.467-2.866l-1.113-0.469l1.114-0.457
				c0.09-0.039,0.561-0.274,0.479-0.842c-0.087-0.598-1.012-0.715-1.021-0.716l-0.662-0.072l0.253-0.616
				c0.01-0.025,1.029-2.532,1.029-5.342c0-3.338-0.562-6.337-1.065-6.941l-0.738-0.82l1.15,0.129c0,0,0.001,0,0.001,0
				c0.534,0,0.973-0.588,0.973-1c0-0.253,0-0.958-1.584-1.306L100.304,174.389z M95.569,164c0.372,0.406,0.589,0.907,0.414,1.479
				c-0.3,0.983-0.861,3.976-0.402,5.208c0.522,1.403,1.847,2.977,2.987,3.085l1.018,0.096l2.02-0.192
				c1.119-0.106,2.481-1.747,3.004-3.152c0.438-1.176-0.055-3.91-0.403-5.045c-0.175-0.572,0.042-1.073,0.414-1.479h-1.856
				l0.274-0.686c1.175-2.937,1.371-5.219,0.95-11.096c-0.229-3.209-0.907-8.39-1.506-12.96c-0.525-4.015-0.979-7.482-1.055-8.998
				c-0.191-3.894,0.47-5.187,0.677-5.491c0.106-0.154,0.265-0.323,0.441-0.503c0.309-0.317,0.66-0.676,0.654-1.015
				c-0.009-0.566-0.452-1.057-0.457-1.061l-0.565-0.606l0.801-0.218c0.17-0.046,4.159-1.173,4.159-5.022
				c0-3.953-3.644-6.024-3.68-6.044l-1.201-0.667l1.351-0.261c0.258-0.05,0.827-0.26,0.835-0.56
				c0.015-0.506-0.696-0.899-1.408-1.063l-2.998-0.694l3.063-0.291c1.549-0.147,2.857-1.246,2.857-2.4
				c0-0.64-0.304-1.478-0.625-2.365c-0.328-0.903-0.667-1.837-0.751-2.736c-0.047-0.496-0.014-0.918,0.096-1.263h-3.167l0.229-0.665
				c0.007-0.021,0.717-2.133,0.673-6.947c-0.032-3.472-0.622-10.813-1.096-16.712c-0.202-2.511-0.38-4.725-0.479-6.199
				c-0.321-4.806-0.039-9.14,0.407-10.937c0.299-1.208-0.503-1.694-0.595-1.745l-0.728-0.405l-0.639,0.32
				c-0.072,0.039-0.758,0.451-0.461,1.646c0.45,1.819,0.788,5.959,0.468,10.751c-0.092,1.372-0.25,3.415-0.432,5.755
				c-0.456,5.887-1.081,13.95-1.113,17.526c-0.043,4.81,0.694,6.921,0.702,6.941l0.24,0.669L95.514,98
				c0.11,0.344,0.143,0.767,0.096,1.263c-0.084,0.891-0.419,1.919-0.744,2.913c-0.309,0.949-0.629,1.93-0.632,2.559
				c-0.004,1.07,1.276,2.062,2.856,2.212l3.061,0.29l-2.996,0.695c-0.429,0.099-1.424,0.393-1.408,0.969
				c0.009,0.323,0.683,0.488,0.815,0.508l1.471,0.213l-1.301,0.72c-0.037,0.021-3.679,2.08-3.679,6.016c0,3.847,3.986,4.955,4.155,5
				l0.824,0.22l-0.593,0.612c-0.002,0.003-0.439,0.47-0.449,1.029c-0.006,0.327,0.333,0.663,0.633,0.959
				c0.184,0.182,0.351,0.354,0.46,0.514c0.264,0.385,0.86,1.686,0.677,5.405c-0.075,1.521-0.531,5.037-1.059,9.109
				c-0.597,4.6-1.273,9.813-1.501,13.014c-0.419,5.877-0.224,8.158,0.95,11.095L97.425,164H95.569z M98.525,33.319
				c0.149,0,0.306,0.03,0.464,0.088c0.676,0.251,1.018,0.786,0.938,1.469c-0.163,1.38-2.068,3.144-2.986,3.255
				c-0.698,0.084-1.561,1.099-1.528,1.631c0.007,0.104,0.183,0.181,0.55,0.302c0.383,0.127,0.859,0.286,1.005,0.759
				c0.487,1.589-0.016,3.016-0.419,4.162c-0.275,0.78-0.512,1.454-0.302,1.821c0.603,1.053,1.38,1.333,1.413,1.344l0.336,0.117
				L98,49.738l-0.065,0.114c-0.003,0.006-0.441,0.813-0.441,2.109c0,1.094,1.738,1.831,1.755,1.837l0.918,0.373l0.491-0.261
				c0.015-0.008,1.442-0.769,1.442-1.904c0-1.217-0.916-2.013-0.925-2.021L101,49.837v-1.619l0.4-0.083
				c0.013-0.003,1.355-0.292,1.948-1.329c0.234-0.409,0.079-1.115-0.101-1.932c-0.246-1.121-0.553-2.516-0.083-4.05
				c0.147-0.476,0.631-0.634,1.02-0.76c0.315-0.103,0.556-0.19,0.563-0.302c0.034-0.533-0.82-1.547-1.512-1.63
				c-0.916-0.111-2.817-1.873-2.98-3.253c-0.081-0.684,0.261-1.22,0.938-1.471c0.158-0.059,0.314-0.088,0.464-0.088
				c0.791,0,1.143,0.751,1.425,1.356c0.1,0.213,0.201,0.433,0.323,0.623c0.321,0.5,1.311,0.82,1.632,0.894l2.317,0.46l-0.092,0.486
				c-0.095,0.503-0.153,1.058-0.138,1.28c0.07-0.139,0.17-0.357,0.236-0.552l0.062-0.181l0.167-0.094
				c0.465-0.259,0.955-0.576,1.047-0.676l0.11-0.121l0.169-0.041c0.015-0.003,1.522-0.333,1.522-1.204
				c0-0.705-0.729-0.827-0.979-0.848c-0.412,0.134-0.931,0.427-0.931,0.655c0,0.996-0.602,1.278-0.92,1.288l-0.124,0.004
				l-0.111-0.055c-0.042-0.02-1.021-0.517-0.706-2.012c0.03-0.144-0.106-0.694-0.442-1.061c-0.25-0.272-0.574-0.4-1.12-0.44
				c-0.675-0.049-2.363-1.177-2.68-2.056c-0.091-0.253-0.188-0.624,0.026-0.927c0.159-0.226,0.575-0.398,1.534-0.138
				c0.863,0.236,1.718,0.537,2.123,1.144c0.098,0.142,0.687,0.366,1.212,0.461l0.125,0.023l0.099,0.079
				c0.226,0.001,0.408-0.034,0.583-0.067c0.24-0.045,0.483-0.087,0.703-0.089c0.001-0.008,0.001-0.016,0.002-0.023
				c0.052-0.51,0.265-0.768,0.632-0.768c0.212,0,0.378,0.109,0.484,0.191c0.223,0.172,0.659,0.019,0.662,0.017l0.154-0.05
				c0.1-0.085,0.065-0.429-0.048-0.707l-0.268-0.661l0.712-0.028c0.558-0.021,1.29-0.145,1.492-0.294
				c0.09-0.066,0.053-0.383,0.026-0.614c-0.021-0.174-0.041-0.353-0.034-0.529c-0.029-0.019-0.068-0.041-0.098-0.058
				c-0.437-0.248-0.592-0.559-0.46-0.923c-0.025,0.019-0.148-0.144-0.259-0.245l-0.444-0.407l0.48-0.363
				c0.213-0.16,0.438-0.371,0.546-0.506c-0.078-0.079-0.203-0.175-0.299-0.231l-0.499-0.287l0.354-0.454
				c0.196-0.251,0.388-0.562,0.46-0.737c-0.042-0.014-0.089-0.025-0.114-0.027l-0.796-0.076l0.418-0.684
				c0.072-0.118,0.242-0.448,0.3-0.758l-0.098,0.003c-0.364,0-0.533-0.172-0.61-0.316l-0.124-0.231l0.119-0.233
				c0.012-0.022,0.021-0.047,0.029-0.074l-1.348,0.867l0.784-1.607c0.154-0.317,0.145-0.737,0.084-1.057
				c-0.027,0.035-0.053,0.069-0.079,0.104c-0.547,0.716-1.462,1.915-3.017,3.344c-0.741,0.682-1.8,1.713-2.038,1.996
				c-0.015,0.127,0.004,0.345,0.077,0.415c0.338,0.316,0.796,0.745,0.784,1.308c-0.004,0.21-0.079,0.521-0.41,0.806
				c-0.372,0.32-0.983,0.512-1.635,0.512c-0.737,0-1.284-0.242-1.499-0.663c-0.323-0.634,0.169-1.05,0.409-1.224
				c-0.042-0.035-0.088-0.074-0.126-0.107c-0.29-0.25-0.62-0.534-0.717-0.938c-0.03-0.124-0.097-0.26-0.162-0.404
				c-0.194-0.426-0.435-0.957-0.204-1.484c0.037-0.084,0.066-0.089,0.098-0.182c0.147-0.438,0.393-1.122,1.325-1.122
				c0.001,0,0.002,0,0.003,0c0.523,0,0.869,0.146,1.104,0.317c0.147-0.267,0.207-0.49,0.208-0.492l0.228-0.725l0.568,0.46
				c0.08,0.064,0.209,0.122,0.264,0.122c0.015-0.019,0.042-0.161,0.015-0.213c-0.363-0.42-0.677-1.304-0.176-1.838
				c0.004-0.004,0.008-0.01,0.013-0.014c-0.011,0.002-0.021,0.004-0.032,0.006l-0.181,0.017c-0.3,0-0.463-0.157-0.533-0.25
				c-0.21-0.278-0.118-0.599-0.043-0.856c0.022-0.077,0.059-0.205,0.058-0.25c-0.029-0.412-0.292-0.596-0.66-0.812
				c-0.184-0.108-0.358-0.21-0.462-0.391c-0.02-0.034-0.036-0.068-0.05-0.103c-0.032,0.617-0.582,0.71-0.952,0.739
				c-0.005,0.033-0.009,0.068-0.013,0.097c-0.028,0.229-0.103,0.839-0.731,0.89c-0.417-0.002-0.679-0.167-0.889-0.475
				c-0.31-0.455-0.383-1.134-0.179-1.652c0.157-0.4,0.038-0.708,0.031-0.725c0,0,0,0,0,0c-0.001,0-0.176-0.271-0.889-0.383
				l-0.418-0.066l-0.418,0.066c-0.76,0.119-1.013,0.455-1.039,0.494l0,0c0.005,0-0.091,0.271,0.055,0.64
				c0.205,0.521,0.134,1.179-0.178,1.637c-0.21,0.31-0.503,0.48-0.824,0.48c-0.698-0.054-0.774-0.665-0.802-0.895
				c-0.004-0.03-0.008-0.067-0.014-0.102c-0.356-0.028-0.923-0.118-0.951-0.667c0-0.028-0.001-0.054-0.002-0.079
				c-0.014,0.035-0.03,0.07-0.049,0.104c-0.105,0.182-0.279,0.284-0.462,0.392c-0.369,0.216-0.631,0.4-0.661,0.814
				c0,0.044,0.036,0.172,0.059,0.249c0.074,0.257,0.166,0.577-0.044,0.855c-0.07,0.093-0.233,0.25-0.534,0.25l-0.18-0.017
				c-0.011-0.001-0.021-0.004-0.032-0.006c0.004,0.004,0.008,0.009,0.013,0.014c0.499,0.535,0.186,1.417-0.184,1.845
				c-0.02,0.042,0.007,0.184,0.048,0.21c0.034-0.009,0.177-0.086,0.238-0.137l0.573-0.478l0.224,0.712c0,0,0.06,0.18,0.207,0.447
				c0.235-0.171,0.579-0.404,1.052-0.404c0.988,0.037,1.234,0.771,1.381,1.209c0.031,0.092,0.061,0.184,0.098,0.269
				c0.229,0.526-0.011,1.056-0.204,1.481c-0.065,0.144-0.132,0.281-0.162,0.406c-0.098,0.404-0.427,0.688-0.717,0.938
				c-0.038,0.032-0.082,0.07-0.125,0.108c0.239,0.174,0.729,0.59,0.407,1.223c-0.215,0.422-0.762,0.664-1.5,0.664
				c-0.652,0-1.264-0.191-1.636-0.512c-0.331-0.286-0.405-0.596-0.41-0.806c-0.011-0.564,0.447-0.992,0.721-1.248
				c0.129-0.123,0.155-0.349,0.141-0.476c-0.238-0.284-1.289-1.307-2.038-1.996c-1.556-1.431-2.471-2.629-3.019-3.346
				c-0.025-0.034-0.052-0.068-0.078-0.102c-0.061,0.32-0.07,0.74,0.084,1.057l0.787,1.609l-1.351-0.869
				c0.008,0.026,0.018,0.051,0.029,0.073l0.12,0.234l-0.125,0.231c-0.078,0.144-0.247,0.316-0.61,0.316l-0.098-0.003
				c0.059,0.313,0.228,0.641,0.299,0.758l0.417,0.683l-0.796,0.077c-0.034,0.004-0.077,0.015-0.113,0.027
				c0.073,0.176,0.267,0.492,0.459,0.738l0.352,0.451l-0.495,0.29c-0.106,0.062-0.226,0.156-0.3,0.232
				c0.109,0.136,0.333,0.346,0.546,0.506l0.482,0.362l-0.446,0.408c-0.111,0.101-0.234,0.264-0.249,0.329
				c0.12,0.281-0.035,0.591-0.471,0.838c-0.029,0.017-0.068,0.039-0.098,0.058c0.008,0.175-0.013,0.354-0.033,0.527
				c-0.027,0.231-0.064,0.549,0.025,0.615c0.222,0.165,1.009,0.277,1.492,0.295l0.713,0.026l-0.269,0.663
				c-0.113,0.279-0.148,0.623-0.097,0.698l0.207,0.061l0,0c0,0,0.436,0.151,0.657-0.02c0.106-0.082,0.272-0.191,0.484-0.191
				c0.367,0,0.58,0.258,0.633,0.768c0.001,0.007,0.001,0.015,0.002,0.023c0.22,0.002,0.464,0.044,0.704,0.089
				c0.176,0.033,0.349,0.069,0.5,0.069l0.098-0.079l0.207-0.024c0.527-0.097,1.117-0.321,1.214-0.462
				c0.403-0.606,1.259-0.908,2.124-1.143c0.959-0.261,1.375-0.087,1.534,0.138c0.213,0.304,0.116,0.674,0.025,0.927
				c-0.316,0.878-2.005,2.006-2.681,2.056c-0.544,0.041-0.869,0.168-1.118,0.44c-0.336,0.366-0.474,0.913-0.444,1.055l0.047,0.23
				l-0.292,0.46l-0.251,0.005c-0.191,0-0.314-0.094-0.434-0.185c-0.165-0.126-0.441-0.336-0.855-0.353l-0.16-0.006l-0.125-0.096
				l0.023,0.022l-0.225,0.26c0.052,0.023,0.129,0.05,0.239,0.077l0.612,0.149l-0.284,0.562c-0.293,0.58-0.292,1.134-0.243,1.247
				c0.078,0.077,0.61,0.412,1.024,0.642l0.167,0.093l0.062,0.181c0.065,0.188,0.157,0.392,0.237,0.536
				c0.011-0.23-0.047-0.771-0.14-1.263l-0.092-0.487l2.331-0.462c0.308-0.071,1.295-0.392,1.616-0.891
				c0.122-0.19,0.223-0.411,0.323-0.625C97.385,34.069,97.735,33.319,98.525,33.319z M103.464,30.857
				c0.35,0.482,1.401,1.193,1.718,1.227c0.541,0.04,1.233,0.163,1.782,0.762c0.49,0.534,0.796,1.405,0.683,1.942
				c-0.007,0.034,0.035,0.067,0.029,0.098c0.241-0.546,0.323-0.879,1.323-1.045v-0.044l-0.97-0.716l0.671-0.556
				c-0.133,0.013-0.261,0.036-0.376,0.058c-0.509,0.094-0.97,0.124-1.279-0.053c-0.425-0.086-1.41-0.338-1.766-0.871
				c-0.224-0.335-0.95-0.568-1.556-0.733C103.664,30.908,103.566,30.882,103.464,30.857z M91.944,33.747
				c0.261,0.03,0.486,0.103,0.675,0.188c0.118-0.39,0.334-0.791,0.608-1.089c0.549-0.599,1.24-0.722,1.782-0.762
				c0.317-0.034,1.367-0.743,1.717-1.226c-0.102,0.024-0.197,0.051-0.258,0.067c-0.607,0.165-1.332,0.398-1.554,0.733
				c-0.356,0.533-1.339,0.785-1.764,0.871c-0.31,0.177-0.764,0.148-1.272,0.053c-0.183-0.034-0.368-0.072-0.535-0.072l-0.199,0.013
				c-0.363,0-0.604-0.2-0.72-0.595c-0.244,0.083-0.523,0.095-0.757,0.06L91.944,33.747z M104.245,27.051
				c0.1,0.035,0.272,0.073,0.509,0.073c0.401,0,0.796-0.108,0.982-0.27c0.063-0.148-0.072-0.315-0.34-0.565
				c-0.546-0.521-0.494-1.291-0.397-1.573c0.111-0.318,1.489-1.618,2.301-2.365c0.498-0.458,0.929-0.893,1.3-1.293
				c-0.641-0.031-0.784-0.597-0.854-0.873c-0.029-0.115-0.083-0.33-0.137-0.357c-0.145-0.016-0.365,0.034-0.785,0.484
				c-0.014,0.067,0.083,0.364,0.209,0.51c0.208,0.242,0.292,0.598,0.223,0.954c-0.069,0.356-0.276,0.647-0.568,0.798
				c-0.235,0.122-0.534,0.124-0.777,0.049c-0.058,0.11-0.128,0.233-0.213,0.365c-0.201,0.314-0.47,0.361-0.611,0.361
				c-0.267,0-0.472-0.15-0.652-0.283c-0.168-0.124-0.327-0.24-0.5-0.24c-0.216,0.008-0.274,0.054-0.433,0.527
				c-0.04,0.121-0.081,0.24-0.129,0.35c-0.052,0.119,0.098,0.451,0.198,0.67c0.093,0.205,0.18,0.404,0.223,0.582
				c0.025,0.095,0.268,0.304,0.398,0.416c0.266,0.229,0.54,0.465,0.594,0.8c0.071,0.448-0.293,0.705-0.489,0.842
				C104.281,27.025,104.264,27.037,104.245,27.051z M91.594,21c0.371,0,0.8,0.863,1.297,1.32c0.812,0.748,2.191,2.063,2.3,2.38
				c0.097,0.279,0.152,1.057-0.324,1.512l-0.073,0.073c-0.268,0.25-0.403,0.419-0.403,0.499c0.25,0.229,0.645,0.338,1.045,0.338
				c0.234,0,0.404-0.037,0.508-0.074c-0.018-0.013-0.035-0.024-0.049-0.035c-0.196-0.138-0.561-0.394-0.489-0.84
				c0.053-0.336,0.328-0.573,0.594-0.802c0.13-0.112,0.373-0.321,0.398-0.415c0.043-0.178,0.129-0.377,0.223-0.584
				c0.099-0.219,0.25-0.55,0.198-0.668c-0.048-0.11-0.089-0.229-0.129-0.35c-0.159-0.473-0.217-0.52-0.417-0.527c0,0,0,0-0.001,0
				c-0.189,0-0.348,0.117-0.516,0.24c-0.181,0.133-0.385,0.283-0.652,0.283c-0.142,0-0.41-0.047-0.611-0.361
				c-0.084-0.132-0.155-0.255-0.213-0.366c-0.243,0.076-0.542,0.074-0.777-0.049c-0.292-0.151-0.499-0.443-0.568-0.8
				c-0.068-0.355,0.016-0.711,0.224-0.952c0.125-0.146,0.222-0.442,0.192-0.533c-0.405-0.428-0.626-0.477-0.702-0.477
				c-0.121,0.043-0.175,0.227-0.204,0.342C92.373,20.439,92.223,21,91.596,21C91.595,21,91.595,21,91.594,21z M107.542,18.812
				c0.183,0,0.358,0.042,0.521,0.125c0.457,0.233,0.575,0.695,0.652,1.001c0.001,0.005,0.003,0.011,0.004,0.017
				c0.091-0.1,0.191-0.251,0.19-0.375c0-0.061-0.006-0.075-0.105-0.177c-0.11-0.113-0.314-0.324-0.284-0.657
				c0.023-0.259,0.166-0.438,0.424-0.533c-0.038-0.093-0.112-0.197-0.154-0.21c-0.013,0.005-0.093,0.05-0.141,0.077
				c-0.251,0.141-0.749,0.21-0.973-0.134c-0.334-0.508-0.553-0.439-0.612-0.365c-0.055,0.067-0.068,0.142-0.063,0.166
				c0.185,0.25,0.209,0.64,0.055,1.022c-0.024,0.06-0.052,0.117-0.083,0.172C107.151,18.862,107.34,18.812,107.542,18.812z
				 M91.245,18.213c0.258,0.095,0.4,0.273,0.425,0.533c0.029,0.333-0.174,0.543-0.284,0.656c-0.099,0.102-0.105,0.116-0.105,0.176
				c0,0.122,0.095,0.269,0.192,0.37c0-0.003,0.001-0.007,0.002-0.01c0.078-0.306,0.195-0.769,0.652-1.001
				c0.342-0.175,0.752-0.147,1.086,0.003c-0.031-0.055-0.059-0.113-0.083-0.173c-0.154-0.383-0.129-0.773,0.068-1.043
				c-0.007-0.001-0.021-0.076-0.075-0.144c-0.06-0.073-0.277-0.144-0.613,0.366c-0.225,0.344-0.721,0.273-0.973,0.132
				c-0.047-0.027-0.126-0.071-0.157-0.075C91.351,18.018,91.278,18.133,91.245,18.213z"/>
		</g>
	</g>
	<g>
		<path fill-rule="evenodd" clip-rule="evenodd" fill="#EDB400" stroke="#D12E18" stroke-miterlimit="10" d="M100.203,31.454"/>
	</g>
	<g>
		<g>
			<path fill-rule="evenodd" clip-rule="evenodd" fill="#EDB400" d="M100.09,23.952c0,0-0.31-0.127-0.408-0.577
				c-0.099-0.451-0.268-0.985-0.845-1.675s-0.169-1.675,0.353-1.929c0.521-0.253,0.887-1.042,0.887-1.042s0.405,0.788,0.926,1.042
				s0.93,1.218,0.352,1.908c-0.577,0.689-0.746,1.235-0.845,1.686C100.41,23.815,100.09,23.952,100.09,23.952z"/>
		</g>
		<g>
			<path fill="#D12E18" d="M100.094,24.494l-0.194-0.08c-0.056-0.023-0.556-0.246-0.707-0.933c-0.083-0.378-0.215-0.834-0.74-1.461
				c-0.347-0.415-0.473-0.944-0.356-1.491c0.115-0.54,0.45-1.002,0.873-1.208c0.269-0.131,0.556-0.598,0.652-0.804l0.431-0.915
				l0.467,0.897c0.109,0.21,0.423,0.687,0.7,0.821c0.425,0.207,0.76,0.667,0.874,1.202c0.115,0.54-0.012,1.063-0.358,1.477
				c-0.521,0.623-0.655,1.086-0.74,1.471c-0.149,0.682-0.653,0.916-0.71,0.94L100.094,24.494z M100.089,19.642
				c-0.18,0.224-0.41,0.447-0.681,0.579c-0.12,0.058-0.277,0.26-0.333,0.518c-0.036,0.169-0.041,0.418,0.145,0.64
				c0.517,0.617,0.746,1.14,0.874,1.583c0.127-0.453,0.357-0.984,0.876-1.604c0.185-0.22,0.181-0.462,0.146-0.626
				c-0.054-0.253-0.212-0.452-0.333-0.511C100.512,20.089,100.276,19.865,100.089,19.642z"/>
		</g>
	</g>
	<g>
		<g>
			<path fill="#EDB400" d="M97.867,202.099c0,0,2.831,0.065,4.498,0.044"/>
		</g>
		<g>
			<path fill="#D12E18" d="M101.609,202.647c-1.64,0-3.729-0.048-3.754-0.048l0.023-1c0.028,0.001,2.844,0.066,4.48,0.044l0.013,1
				C102.137,202.646,101.879,202.647,101.609,202.647z"/>
		</g>
	</g>
	<g>
		<g>
			<line fill="#EDB400" x1="98" y1="202" x2="102" y2="202"/>
		</g>
		<g>
			<rect x="98" y="201" fill="#D12E18" width="4" height="1"/>
		</g>
	</g>
	<g>
		<g>
			<path fill="#EDB400" d="M97.277,192.679c0,0,2.464-0.045,5.642,0.006"/>
		</g>
		<g>
			<path fill="#D12E18" d="M102.911,193.185c-3.131-0.052-5.6-0.007-5.624-0.006l-0.019-1c0.023,0,2.509-0.046,5.659,0.006
				L102.911,193.185z"/>
		</g>
	</g>
	<g>
		<g>
			<line fill="#EDB400" x1="97.95" y1="190.164" x2="102.242" y2="190.166"/>
		</g>
		<g>
			<rect x="98" y="189.665" fill="#D12E18" width="4" height="1"/>
		</g>
	</g>
	<g>
		<g>
			<path fill="#EDB400" d="M98.064,177.371c0,0,1.669-0.46,4.062,0"/>
		</g>
		<g>
			<path fill="#D12E18" d="M102.032,177.862c-2.236-0.431-3.82-0.014-3.836-0.009l-0.265-0.964c0.073-0.02,1.81-0.485,4.29-0.009
				L102.032,177.862z"/>
		</g>
	</g>
	<g>
		<g>
			<line fill="#EDB400" x1="98.64" y1="174.167" x2="101.736" y2="174.164"/>
		</g>
		<g>
			<rect x="99" y="173.665" fill="#D12E18" width="3" height="1"/>
		</g>
	</g>
	<g>
		<g>
			<line fill="#EDB400" x1="96.486" y1="162.89" x2="103.504" y2="162.848"/>
		</g>
		<g>
			<rect x="99.495" y="159.36" transform="matrix(0.0059 1 -1 0.0059 262.2751 61.921)" fill="#D12E18" width="1" height="7.018"/>
		</g>
	</g>
	<g>
		<g>
			<path fill="#EDB400" d="M97.08,121.831c0,0,2.632,0.459,6.03-0.001"/>
		</g>
		<g>
			<path fill="#D12E18" d="M100.021,122.536c-1.779,0-2.954-0.2-3.027-0.212l0.172-0.985c0.024,0.005,2.604,0.439,5.877-0.004
				l0.135,0.991C102.011,122.483,100.936,122.536,100.021,122.536z"/>
		</g>
	</g>
	<g>
		<g>
			<path fill="#EDB400" d="M96.49,109.864c0,0,2.409-0.039,7.211-0.007"/>
		</g>
		<g>
			<path fill="#D12E18" d="M96.498,110.364l-0.016-1c0.024,0,2.469-0.038,7.222-0.007l-0.007,1
				C98.958,110.325,96.522,110.363,96.498,110.364z"/>
		</g>
	</g>
	<g>
		<g>
			<line fill="#EDB400" x1="97.042" y1="107.284" x2="103.148" y2="107.26"/>
		</g>
		<g>
			<rect x="97.042" y="106.772" fill="#D12E18" width="6.106" height="1"/>
		</g>
	</g>
	<g>
		<g>
			<line fill="#EDB400" x1="98" y1="98" x2="102" y2="98"/>
		</g>
		<g>
			<rect x="98" y="97" fill="#D12E18" width="4" height="1"/>
		</g>
	</g>
	<g>
		<g>
			<line fill="#EDB400" x1="99.315" y1="54.263" x2="100.89" y2="54.275"/>
		</g>
		<g>
			<rect x="99.315" y="53.769" transform="matrix(1 0.0078 -0.0078 1 0.4238 -0.7746)" fill="#D12E18" width="1.574" height="1"/>
		</g>
	</g>
	<g>
		<g>
			<line fill="#EDB400" x1="98.476" y1="49.598" x2="101.667" y2="49.606"/>
		</g>
		<g>
			<rect x="98.476" y="49.102" transform="matrix(1 0.0026 -0.0026 1 0.1294 -0.2601)" fill="#D12E18" width="3.191" height="1"/>
		</g>
	</g>
	<g>
		<g>
			<line fill="#EDB400" x1="98.514" y1="48.625" x2="101.714" y2="48.622"/>
		</g>
		<g>
			<rect x="99" y="48.124" fill="#D12E18" width="3" height="1"/>
		</g>
	</g>
	<g>
		<g>
			<path fill="#EDB400" d="M96.299,40.729c0,0,3.454,1.127,7.809-0.075"/>
		</g>
		<g>
			<path fill="#D12E18" d="M99.989,41.711c-2.251,0-3.75-0.476-3.845-0.507l0.31-0.951c0.033,0.011,3.375,1.063,7.521-0.081
				l0.266,0.964C102.67,41.569,101.217,41.711,99.989,41.711z"/>
		</g>
	</g>
	<g>
		<g>
			<path fill="#EDB400" d="M101,31c0,0,0.759,0,0.237,0c-0.521,0-1.175,0.732-1.175,0.732S99.449,31,98.873,31
				C98.295,31,98,31,98,31v-4h3V31z"/>
		</g>
		<g>
			<path fill="#D12E18" d="M100.051,31.992l-0.371-0.438C99.483,31.322,99.094,31,98.873,31H98v-5h4v5h-0.763
				c-0.168,0-0.562,0.299-0.803,0.566L100.051,31.992z M99,30.007c0.418,0.044,0.8,0.296,1.069,0.526
				c0.246-0.206,0.58-0.431,0.931-0.507V27h-2V30.007z"/>
		</g>
	</g>
</g>
</svg>
